{"title":"Zoe Likes It Hard - 18OnlyGirls","uid":10987854,"size":265243251,"categoryP":"porn","categoryS":"movie_clips","magnet":"?xt=urn:btih:b7acf3bc9917f4c912c43561b3eb0da76e79081d&amp;dn=Zoe+Likes+It+Hard+-+18OnlyGirls&amp;tr=udp%3A%2F%2Ftracker.openbittorrent.com%3A80&amp;tr=udp%3A%2F%2Fopen.demonii.com%3A1337&amp;tr=udp%3A%2F%2Ftracker.coppersurfer.tk%3A6969&amp;tr=udp%3A%2F%2Fexodus.desync.com%3A6969","seeders":1,"leechers":1,"uploader":"athklym","files":-1,"time":1409945708,"description":" &lt;a href=&quot;http://bayimg.com/KAapmaaGd&quot; rel=&quot;nofollow&quot; target=&quot;_NEW&quot;&gt;http://bayimg.com/KAapmaaGd&lt;/a&gt;\nZoe_Likes_It_Hard_18OnlyGirls.mp4\nFormat : MPEG-4\nFormat profile : Base Media\nCodec ID : isom\nFile size : 253 MiB\nDuration : 24mn 57s\nOverall bit rate mode : Variable\nOverall bit rate : 1 417 Kbps\nEncoded date : UTC 1970-01-01 00:00:00\nTagged date : UTC 1970-01-01 00:00:00\nWriting application : Lavf52.64.2\n\nVideo\nID : 1\nFormat : AVC\nFormat/Info : Advanced Video Codec\nFormat profile : &lt;a class=&quot;__cf_email__&quot; href=&quot;/cdn-cgi/l/email-protection&quot; data-cfemail=&quot;96defff1fed6daa5b8a7&quot;&gt;[email&amp;#160;protected]&lt;/a&gt;&lt;script cf-hash='f9e31' type=&quot;text/javascript&quot;&gt;\n/* &lt;![CDATA[ */!function(){try{var t=&quot;currentScript&quot;in document?document.currentScript:function(){for(var t=document.getElementsByTagName(&quot;script&quot;),e=t.length;e--;)if(t[e].getAttribute(&quot;cf-hash&quot;))return t[e]}();if(t&amp;&amp;t.previousSibling){var e,r,n,i,c=t.previousSibling,a=c.getAttribute(&quot;data-cfemail&quot;);if(a){for(e=&quot;&quot;,r=parseInt(a.substr(0,2),16),n=2;a.length-n;n+=2)i=parseInt(a.substr(n,2),16)^r,e+=String.fromCharCode(i);e=document.createTextNode(e),c.parentNode.replaceChild(e,c)}}}catch(u){}}();/* ]]&gt; */&lt;/script&gt;\nFormat settings, CABAC : Yes\nFormat settings, ReFrames : 2 frames\nCodec ID : avc1\nCodec ID/Info : Advanced Video Coding\nDuration : 24mn 57s\nBit rate : 1 260 Kbps\nWidth : 852 pixels\nHeight : 480 pixels\nDisplay aspect ratio : 16:9\nFrame rate mode : Constant\nFrame rate : 29.970 fps\nColor space : YUV\nChroma subsampling : 4:2:0\nBit depth : 8 bits\nScan type : Progressive\nBits/(Pixel*Frame) : 0.103\nStream size : 225 MiB (89%)\nWriting library : x264 core 102 r1666 d058f37\nEncoding settings : cabac=1 / ref=2 / deblock=1:0:0 / analyse=0x3:0x113 / me=hex / subme=6 / psy=1 / psy_rd=1.00:0.00 / mixed_ref=0 / me_range=16 / chroma_me=1 / trellis=0 / 8x8dct=1 / cqm=0 / deadzone=21,11 / fast_pskip=1 / chroma_qp_offset=-2 / threads=24 / sliced_threads=0 / nr=0 / decimate=1 / interlaced=0 / constrained_intra=0 / bframes=3 / b_pyramid=0 / b_adapt=1 / b_bias=0 / direct=3 / weightb=1 / open_gop=0 / weightp=2 / keyint=250 / keyint_min=25 / scenecut=40 / intra_refresh=0 / rc_lookahead=40 / rc=crf / mbtree=1 / crf=20.0 / qcomp=0.60 / qpmin=10 / qpmax=51 / qpstep=4 / ip_ratio=1.41 / aq=1:1.00\nEncoded date : UTC 1970-01-01 00:00:00\nTagged date : UTC 1970-01-01 00:00:00\n\nAudio\nID : 2\nFormat : AAC\nFormat/Info : Advanced Audio Codec\nFormat profile : LC\nCodec ID : 40\nDuration : 24mn 57s\nBit rate mode : Variable\nBit rate : 151 Kbps\nChannel(s) : 2 channels\nChannel positions : Front: L R\nSampling rate : 44.1 KHz\nCompression mode : Lossy\nStream size : 27.0 MiB (11%)\nEncoded date : UTC 1970-01-01 00:00:00\nTagged date : UTC 1970-01-01 00:00:00","torrent":{"xt":"urn:btih:b7acf3bc9917f4c912c43561b3eb0da76e79081d","amp;dn":"Zoe+Likes+It+Hard+-+18OnlyGirls","amp;tr":["udp%3A%2F%2Ftracker.openbittorrent.com%3A80","udp%3A%2F%2Fopen.demonii.com%3A1337","udp%3A%2F%2Ftracker.coppersurfer.tk%3A6969","udp%3A%2F%2Fexodus.desync.com%3A6969"],"infoHash":"b7acf3bc9917f4c912c43561b3eb0da76e79081d","infoHashBuffer":{"type":"Buffer","data":[183,172,243,188,153,23,244,201,18,196,53,97,179,235,13,167,110,121,8,29]},"announce":[],"urlList":[]}}